<svg width="15" height="14" viewBox="0 0 15 14" fill="none" xmlns="http://www.w3.org/2000/svg">
<path d="M13.25 1.87695H10.625V0.876953C10.625 0.808203 10.5687 0.751953 10.5 0.751953H9.62499C9.55624 0.751953 9.49999 0.808203 9.49999 0.876953V1.87695H5.49999V0.876953C5.49999 0.808203 5.44374 0.751953 5.37499 0.751953H4.49999C4.43124 0.751953 4.37499 0.808203 4.37499 0.876953V1.87695H1.75C1.47344 1.87695 1.25 2.10039 1.25 2.37695V12.752C1.25 13.0285 1.47344 13.252 1.75 13.252H13.25C13.5265 13.252 13.75 13.0285 13.75 12.752V2.37695C13.75 2.10039 13.5265 1.87695 13.25 1.87695ZM12.625 12.127H2.375V6.18945H12.625V12.127ZM2.375 5.12695V3.00195H4.37499V3.75195C4.37499 3.8207 4.43124 3.87695 4.49999 3.87695H5.37499C5.44374 3.87695 5.49999 3.8207 5.49999 3.75195V3.00195H9.49999V3.75195C9.49999 3.8207 9.55624 3.87695 9.62499 3.87695H10.5C10.5687 3.87695 10.625 3.8207 10.625 3.75195V3.00195H12.625V5.12695H2.375Z" fill="#757575"/>
</svg>
