<svg width="35" height="35" viewBox="0 0 35 35" fill="none" xmlns="http://www.w3.org/2000/svg">
<path fill-rule="evenodd" clip-rule="evenodd" d="M11.0453 6.32333C11.4447 5.72406 11.986 5.23267 12.621 4.89279C13.256 4.55291 13.965 4.37505 14.6853 4.375H20.3144C21.0346 4.37505 21.7437 4.55291 22.3787 4.89279C23.0137 5.23267 23.5549 5.72406 23.9544 6.32333L25.1386 8.10104C25.2718 8.30071 25.4522 8.46441 25.6639 8.57762C25.8756 8.69082 26.1119 8.75004 26.3519 8.75H27.7082C28.8685 8.75 29.9813 9.21094 30.8018 10.0314C31.6222 10.8519 32.0832 11.9647 32.0832 13.125V26.25C32.0832 27.4103 31.6222 28.5231 30.8018 29.3436C29.9813 30.1641 28.8685 30.625 27.7082 30.625H7.2915C6.13118 30.625 5.01838 30.1641 4.19791 29.3436C3.37744 28.5231 2.9165 27.4103 2.9165 26.25V13.125C2.9165 11.9647 3.37744 10.8519 4.19791 10.0314C5.01838 9.21094 6.13118 8.75 7.2915 8.75H8.64775C8.88778 8.75004 9.12411 8.69082 9.33577 8.57762C9.54743 8.46441 9.72787 8.30071 9.86109 8.10104L11.0453 6.32333ZM14.5832 18.9583C14.5832 18.1848 14.8905 17.4429 15.4374 16.8959C15.9844 16.349 16.7263 16.0417 17.4998 16.0417C18.2734 16.0417 19.0152 16.349 19.5622 16.8959C20.1092 17.4429 20.4165 18.1848 20.4165 18.9583C20.4165 19.7319 20.1092 20.4737 19.5622 21.0207C19.0152 21.5677 18.2734 21.875 17.4998 21.875C16.7263 21.875 15.9844 21.5677 15.4374 21.0207C14.8905 20.4737 14.5832 19.7319 14.5832 18.9583ZM17.4998 13.125C15.9527 13.125 14.469 13.7396 13.375 14.8335C12.2811 15.9275 11.6665 17.4112 11.6665 18.9583C11.6665 20.5054 12.2811 21.9892 13.375 23.0831C14.469 24.1771 15.9527 24.7917 17.4998 24.7917C19.0469 24.7917 20.5307 24.1771 21.6246 23.0831C22.7186 21.9892 23.3332 20.5054 23.3332 18.9583C23.3332 17.4112 22.7186 15.9275 21.6246 14.8335C20.5307 13.7396 19.0469 13.125 17.4998 13.125Z" fill="white"/>
</svg>
