<svg width="26" height="26" viewBox="0 0 26 26" fill="none" xmlns="http://www.w3.org/2000/svg">
<path d="M12.9999 22.5H13C14.6773 22.5 16.7302 22.075 18.1673 21.2969L18.3572 21.194L18.5623 21.2619L22.2814 22.4916C22.2815 22.4917 22.2816 22.4917 22.2817 22.4917C22.3109 22.5013 22.3422 22.5025 22.3721 22.4953C22.4021 22.4881 22.4296 22.4727 22.4514 22.4507L22.8061 22.803L22.4514 22.4507C22.4732 22.4288 22.4885 22.4011 22.4955 22.3709C22.5026 22.3407 22.5011 22.3091 22.4912 22.2797L22.4911 22.2792L21.2564 18.5823L21.1855 18.3699L21.2968 18.1755C22.1357 16.7102 22.5 14.7592 22.5 12.9995L12.9999 22.5ZM12.9999 22.5C11.7527 22.5003 10.5177 22.2549 9.3653 21.7776C8.21292 21.3004 7.16576 20.6007 6.2836 19.7184C5.40144 18.8362 4.70157 17.7888 4.22395 16.6359C3.74638 15.4831 3.50038 14.2475 3.5 12.9995L12.9999 22.5ZM13.0001 3.5L12.9999 3.5C10.4813 3.49933 8.06561 4.49968 6.28405 6.28112C4.50251 8.06253 3.50104 10.4791 3.5 12.9994L13.0001 3.5ZM13.0001 3.5C15.5187 3.49933 17.9344 4.49968 19.716 6.28112C21.4975 8.06252 22.4989 10.4791 22.5 12.9993L13.0001 3.5Z" stroke="white"/>
</svg>
