<svg width="35" height="35" viewBox="0 0 35 35" fill="none" xmlns="http://www.w3.org/2000/svg">
<g clip-path="url(#clip0_2050_87)">
<path d="M17.5 6.23663e-07C12.8604 -0.00123732 8.41021 1.84051 5.12839 5.12014C1.84657 8.39977 0.00185619 12.8487 0 17.4883C0.000612754 19.7859 0.45375 22.0608 1.33354 24.1832C2.21333 26.3056 3.50254 28.2339 5.12756 29.858C6.75259 31.4822 8.6816 32.7704 10.8045 33.649C12.9273 34.5277 15.2025 34.9796 17.5 34.979C20.5473 34.979 24.29 34.2137 26.9593 32.7693L33.4693 34.9207C33.6749 34.9882 33.8952 34.9971 34.1056 34.9466C34.316 34.8961 34.5082 34.788 34.6607 34.6345C34.8133 34.481 34.9201 34.2882 34.9693 34.0774C35.0185 33.8667 35.0081 33.6465 34.9393 33.4413L32.7787 26.9757C34.3467 24.2387 35 20.6617 35 17.4883C34.9981 12.8487 33.1534 8.39977 29.8716 5.12014C26.5898 1.84051 22.1396 -0.00123732 17.5 6.23663e-07Z" fill="#000AFF"/>
</g>
<defs>
<clipPath id="clip0_2050_87">
<rect width="35" height="35" fill="white"/>
</clipPath>
</defs>
</svg>
