<svg width="25" height="24" viewBox="0 0 25 24" fill="none" xmlns="http://www.w3.org/2000/svg">
<path d="M10.033 11.1501C9.69173 11.4918 9.50003 11.9551 9.5 12.4381V15.0001H12.078C12.561 15.0001 13.025 14.8081 13.367 14.4661L20.967 6.86206C21.1362 6.69287 21.2705 6.49199 21.3621 6.27091C21.4537 6.04982 21.5008 5.81286 21.5008 5.57356C21.5008 5.33425 21.4537 5.09729 21.3621 4.87621C21.2705 4.65513 21.1362 4.45425 20.967 4.28506L20.216 3.53406C20.0468 3.36468 19.8459 3.2303 19.6247 3.13862C19.4035 3.04694 19.1664 2.99976 18.927 2.99976C18.6876 2.99976 18.4505 3.04694 18.2293 3.13862C18.0081 3.2303 17.8072 3.36468 17.638 3.53406L10.033 11.1501Z" stroke="#707070" stroke-width="1.875" stroke-linecap="round" stroke-linejoin="round"/>
<path d="M21.5 12.0002C21.5 16.2432 21.5 18.3642 20.182 19.6822C18.864 21.0002 16.742 21.0002 12.5 21.0002C8.257 21.0002 6.136 21.0002 4.818 19.6822C3.5 18.3642 3.5 16.2422 3.5 12.0002C3.5 7.75724 3.5 5.63624 4.818 4.31824C6.136 3.00024 8.258 3.00024 12.5 3.00024" stroke="#707070" stroke-width="1.875" stroke-linecap="round" stroke-linejoin="round"/>
</svg>
