<svg width="48" height="48" viewBox="0 0 48 48" fill="none" xmlns="http://www.w3.org/2000/svg">
<path d="M26 38C26 39.4 26.26 40.74 26.7 42H10C8.93913 42 7.92172 41.5786 7.17157 40.8284C6.42143 40.0783 6 39.0609 6 38V10C6 7.8 7.8 6 10 6H38C39.0609 6 40.0783 6.42143 40.8284 7.17157C41.5786 7.92172 42 8.93913 42 10V26.7C40.74 26.26 39.4 26 38 26V10H10V38H26ZM27.92 24.58L22.42 31.66L18.5 26.94L13 34H26.7C27.5 31.76 28.94 29.82 30.8 28.42L27.92 24.58ZM40 36V30H36V36H30V40H36V46H40V40H46V36H40Z" fill="white"/>
</svg>
