<svg width="26" height="26" viewBox="0 0 26 26" fill="none" xmlns="http://www.w3.org/2000/svg">
<path d="M13.151 22.2065L13.148 22.2081C13.1025 22.2326 13.0517 22.2454 13 22.2454C12.9483 22.2454 12.8975 22.2326 12.852 22.2081L12.849 22.2065C12.6415 22.0967 9.93157 20.6196 7.28111 18.2984C4.60436 15.9542 2.12514 12.8678 2.125 9.54715C2.12681 8.01021 2.73816 6.53673 3.82494 5.44994C4.91173 4.36316 6.38521 3.75181 7.92215 3.75C9.87318 3.75008 11.5565 4.5866 12.6002 5.97654L13 6.50907L13.3998 5.97654C14.4435 4.5866 16.1268 3.75008 18.0779 3.75C19.6148 3.75181 21.0883 4.36316 22.1751 5.44994C23.2619 6.5368 23.8733 8.01039 23.875 9.54744C23.8747 12.8679 21.3956 15.9543 18.7189 18.2984C16.0684 20.6196 13.3585 22.0967 13.151 22.2065Z" stroke="white"/>
</svg>
