<svg width="30" height="31" viewBox="0 0 30 31" fill="none" xmlns="http://www.w3.org/2000/svg">
<path d="M28.125 11.5156C28.125 19.7187 15.9621 26.3586 15.4441 26.6328C15.3076 26.7063 15.155 26.7447 15 26.7447C14.845 26.7447 14.6924 26.7063 14.5559 26.6328C14.0379 26.3586 1.875 19.7187 1.875 11.5156C1.87717 9.58933 2.64335 7.74255 4.00545 6.38045C5.36755 5.01835 7.21433 4.25217 9.14062 4.25C11.5605 4.25 13.6793 5.29062 15 7.04961C16.3207 5.29062 18.4395 4.25 20.8594 4.25C22.7857 4.25217 24.6325 5.01835 25.9946 6.38045C27.3566 7.74255 28.1228 9.58933 28.125 11.5156Z" fill="#FF001F"/>
</svg>
