<svg width="19" height="18" viewBox="0 0 19 18" fill="none" xmlns="http://www.w3.org/2000/svg">
<path d="M18.8998 1.62546C18.9901 1.20536 18.5782 0.851141 18.1765 1.00444L0.749297 7.65714C0.539556 7.73722 0.400826 7.93825 0.400392 8.16274C0.399958 8.38727 0.537893 8.58884 0.747344 8.66972L5.64297 10.5605V16.5159C5.64297 16.7671 5.81547 16.9854 6.05988 17.0435C6.30267 17.1012 6.55583 16.9857 6.66965 16.7599L8.69442 12.742L13.6356 16.409C13.9362 16.6321 14.3682 16.4902 14.4776 16.1317C19.0911 1.00564 18.8916 1.66346 18.8998 1.62546ZM14.598 3.53153L6.10844 9.57749L2.45568 8.16676L14.598 3.53153ZM6.72765 10.4681L14.1276 5.19814C7.76005 11.9156 8.09261 11.562 8.06484 11.5994C8.02359 11.6549 8.13661 11.4385 6.72765 14.2345V10.4681ZM13.6645 15.0797L9.31504 11.8518L17.1794 3.55539L13.6645 15.0797Z" fill="white"/>
</svg>
