<svg width="30" height="31" viewBox="0 0 30 31" fill="none" xmlns="http://www.w3.org/2000/svg">
<path d="M27.4805 13.9039L22.1953 18.5164L23.7785 25.3836C23.8623 25.7426 23.8384 26.1183 23.7098 26.4638C23.5812 26.8093 23.3536 27.1092 23.0555 27.326C22.7574 27.5429 22.4019 27.667 22.0336 27.683C21.6654 27.6989 21.3005 27.6059 20.9848 27.4156L14.9953 23.7828L9.01878 27.4156C8.70304 27.6059 8.33821 27.6989 7.96992 27.683C7.60162 27.667 7.24619 27.5429 6.94807 27.326C6.64994 27.1092 6.42235 26.8093 6.29375 26.4638C6.16515 26.1183 6.14125 25.7426 6.22503 25.3836L7.80589 18.5234L2.51956 13.9039C2.23996 13.6628 2.03778 13.3444 1.93837 12.9889C1.83897 12.6333 1.84676 12.2562 1.96077 11.9051C2.07479 11.5539 2.28995 11.2442 2.57927 11.0148C2.8686 10.7854 3.21921 10.6466 3.58714 10.6156L10.5551 10.0121L13.275 3.52462C13.4171 3.18421 13.6566 2.89343 13.9636 2.68891C14.2706 2.48438 14.6312 2.37524 15 2.37524C15.3689 2.37524 15.7295 2.48438 16.0364 2.68891C16.3434 2.89343 16.583 3.18421 16.725 3.52462L19.4531 10.0121L26.4188 10.6156C26.7867 10.6466 27.1373 10.7854 27.4266 11.0148C27.716 11.2442 27.9311 11.5539 28.0451 11.9051C28.1592 12.2562 28.1669 12.6333 28.0675 12.9889C27.9681 13.3444 27.766 13.6628 27.4864 13.9039H27.4805Z" fill="#4857AD"/>
</svg>
