<svg width="32" height="32" viewBox="0 0 32 32" fill="none" xmlns="http://www.w3.org/2000/svg">
<g clip-path="url(#clip0_2265_1100)">
<path d="M12.8298 1.04008C13.7492 0.365769 14.8597 0.00219727 15.9998 0.00219727C17.14 0.00219727 18.2505 0.365769 19.1698 1.04008L21.0258 2.40008C21.3318 2.62608 21.6858 2.77208 22.0618 2.83008L24.3378 3.18008C25.4641 3.35341 26.5059 3.88118 27.3118 4.68678C28.1178 5.49237 28.646 6.53387 28.8198 7.66008L29.1698 9.93608C29.2278 10.3101 29.3738 10.6661 29.5998 10.9721L30.9598 12.8281C31.6341 13.7475 31.9977 14.8579 31.9977 15.9981C31.9977 17.1382 31.6341 18.2487 30.9598 19.1681L29.5998 21.0241C29.3767 21.3306 29.2293 21.6856 29.1698 22.0601L28.8198 24.3361C28.6464 25.4627 28.1183 26.5046 27.3123 27.3106C26.5064 28.1166 25.4644 28.6446 24.3378 28.8181L22.0618 29.1681C21.6874 29.2276 21.3324 29.3749 21.0258 29.5981L19.1698 30.9581C18.2505 31.6324 17.14 31.996 15.9998 31.996C14.8597 31.996 13.7492 31.6324 12.8298 30.9581L10.9738 29.5981C10.6673 29.3749 10.3123 29.2276 9.93784 29.1681L7.65984 28.8201C6.53391 28.6464 5.49263 28.1184 4.68706 27.3129C3.8815 26.5073 3.35355 25.466 3.17984 24.3401L2.82984 22.0641C2.77035 21.6896 2.62299 21.3346 2.39984 21.0281L1.03984 19.1721C0.365525 18.2527 0.00195312 17.1422 0.00195313 16.0021C0.00195312 14.8619 0.365525 13.7515 1.03984 12.8321L2.39984 10.9761C2.62299 10.6696 2.77035 10.3145 2.82984 9.94008L3.17984 7.66008C3.35355 6.53416 3.8815 5.49287 4.68706 4.68731C5.49263 3.88174 6.53391 3.3538 7.65984 3.18008L9.93584 2.83008C10.3098 2.77208 10.6658 2.62608 10.9718 2.40008L12.8298 1.04008ZM17.3938 3.45808C16.9894 3.16199 16.5011 3.00238 15.9998 3.00238C15.4986 3.00238 15.0103 3.16199 14.6058 3.45808L12.7498 4.81808C12.0527 5.32814 11.2434 5.66353 10.3898 5.79608L8.11784 6.14408C7.62162 6.22036 7.16266 6.4529 6.80766 6.8079C6.45266 7.1629 6.22012 7.62186 6.14384 8.11808L5.79584 10.3921C5.66328 11.2456 5.3279 12.055 4.81784 12.7521L3.45784 14.6061C2.84784 15.4361 2.84784 16.5661 3.45784 17.3941L4.81784 19.2501C5.32984 19.9461 5.66384 20.7541 5.79584 21.6101L6.14384 23.8821C6.29984 24.9021 7.09984 25.7001 8.11784 25.8561L10.3918 26.2041C11.2458 26.3361 12.0538 26.6701 12.7518 27.1821L14.6058 28.5421C15.4358 29.1521 16.5658 29.1521 17.3938 28.5421L19.2498 27.1821C19.947 26.672 20.7563 26.3366 21.6098 26.2041L23.8818 25.8561C24.9018 25.7001 25.6998 24.9001 25.8558 23.8821L26.2038 21.6081C26.3358 20.7541 26.6698 19.9461 27.1818 19.2481L28.5418 17.3941C29.1518 16.5641 29.1518 15.4341 28.5418 14.6061L27.1818 12.7501C26.6718 12.053 26.3364 11.2436 26.2038 10.3901L25.8558 8.11808C25.7796 7.62186 25.547 7.1629 25.192 6.8079C24.837 6.4529 24.3781 6.22036 23.8818 6.14408L21.6078 5.79608C20.7543 5.66353 19.945 5.32814 19.2478 4.81808L17.3938 3.45808ZM13.8398 12.1701C13.6603 12.5228 13.3506 12.7903 12.9747 12.9142C12.5988 13.0382 12.1891 13.0085 11.835 12.8317C11.4809 12.6549 11.211 12.3453 11.0842 11.9704C10.9573 11.5954 10.9838 11.1856 11.1578 10.8301C11.4958 10.1521 12.0298 9.42808 12.8558 8.87608C13.6918 8.32008 14.7378 8.00008 15.9998 8.00008C17.1758 7.99218 18.3236 8.36005 19.2758 9.05008C20.2798 9.80408 20.9998 10.9801 20.9998 12.5001C20.9998 13.3961 20.7698 14.1601 20.3418 14.8001C19.9318 15.4141 19.4018 15.8261 18.9578 16.1241C18.7398 16.2681 18.5178 16.4001 18.3318 16.5141L18.3198 16.5221C18.1438 16.6243 17.9704 16.731 17.7998 16.8421C17.587 16.9698 17.3998 17.1359 17.2478 17.3321C17.0251 17.6583 16.6828 17.8835 16.2951 17.9588C15.9074 18.0342 15.5056 17.9535 15.1769 17.7344C14.8483 17.5153 14.6193 17.1755 14.5398 16.7886C14.4602 16.4017 14.5364 15.9991 14.7518 15.6681C15.1198 15.1401 15.5918 14.6901 16.1358 14.3461C16.3538 14.2001 16.5758 14.0681 16.7618 13.9561L16.7758 13.9481C16.9758 13.8261 17.1398 13.7281 17.2918 13.6261C17.5054 13.4986 17.6932 13.3324 17.8458 13.1361C17.9198 13.0281 17.9998 12.8541 17.9998 12.5001C18.0078 12.2951 17.964 12.0915 17.8724 11.9079C17.7808 11.7244 17.6444 11.5669 17.4758 11.4501C17.0424 11.1506 16.5266 10.9934 15.9998 11.0001C15.2618 11.0001 14.8098 11.1801 14.5198 11.3741C14.2265 11.5743 13.9918 11.8491 13.8398 12.1701ZM17.9998 22.0001C17.9998 22.5305 17.7891 23.0392 17.414 23.4143C17.039 23.7894 16.5303 24.0001 15.9998 24.0001C15.4694 24.0001 14.9607 23.7894 14.5856 23.4143C14.2106 23.0392 13.9998 22.5305 13.9998 22.0001C13.9998 21.4696 14.2106 20.9609 14.5856 20.5859C14.9607 20.2108 15.4694 20.0001 15.9998 20.0001C16.5303 20.0001 17.039 20.2108 17.414 20.5859C17.7891 20.9609 17.9998 21.4696 17.9998 22.0001Z" fill="#797D8C"/>
</g>
<defs>
<clipPath id="clip0_2265_1100">
<rect width="32" height="32" fill="white"/>
</clipPath>
</defs>
</svg>
