<svg width="32" height="32" viewBox="0 0 32 32" fill="none" xmlns="http://www.w3.org/2000/svg">
<g clip-path="url(#clip0_2265_984)">
<path fill-rule="evenodd" clip-rule="evenodd" d="M17.4322 0.629923C17.2458 0.438819 17.0231 0.286943 16.7772 0.183245C16.5313 0.0795463 16.2671 0.026123 16.0002 0.026123C15.7333 0.026123 15.4691 0.0795463 15.2231 0.183245C14.9772 0.286943 14.7545 0.438819 14.5682 0.629923L13.2922 1.93992C13.041 2.19797 12.7249 2.38342 12.3771 2.4767C12.0293 2.56999 11.6627 2.56765 11.3162 2.46992L9.55617 1.97392C9.29927 1.90163 9.03051 1.88148 8.7657 1.91467C8.5009 1.94785 8.24542 2.0337 8.01431 2.16715C7.78319 2.3006 7.58113 2.47895 7.42001 2.6917C7.25889 2.90445 7.14198 3.14729 7.07617 3.40592L6.62417 5.17792C6.53555 5.52675 6.35445 5.84521 6.09995 6.09971C5.84545 6.3542 5.527 6.53531 5.17817 6.62392L3.40617 7.07392C3.14754 7.13974 2.90469 7.25665 2.69194 7.41776C2.47919 7.57888 2.30084 7.78095 2.16739 8.01206C2.03394 8.24317 1.9481 8.49866 1.91491 8.76346C1.88173 9.02826 1.90187 9.29703 1.97417 9.55392L2.47017 11.3159C2.56789 11.6625 2.57023 12.029 2.47695 12.3768C2.38366 12.7246 2.19821 13.0408 1.94017 13.2919L0.630167 14.5679C0.439063 14.7542 0.287187 14.9769 0.183489 15.2229C0.0797904 15.4688 0.0263672 15.733 0.0263672 15.9999C0.0263672 16.2668 0.0797904 16.531 0.183489 16.777C0.287187 17.0229 0.439063 17.2456 0.630167 17.4319L1.94017 18.7099C2.19786 18.9609 2.3831 19.2767 2.47637 19.6241C2.56965 19.9715 2.5675 20.3376 2.47017 20.6839L1.97417 22.4439C1.90187 22.7008 1.88173 22.9696 1.91491 23.2344C1.9481 23.4992 2.03394 23.7547 2.16739 23.9858C2.30084 24.2169 2.47919 24.419 2.69194 24.5801C2.90469 24.7412 3.14754 24.8581 3.40617 24.9239L5.17817 25.3759C5.527 25.4645 5.84545 25.6456 6.09995 25.9001C6.35445 26.1546 6.53555 26.4731 6.62417 26.8219L7.07417 28.5939C7.13976 28.8527 7.25651 29.0958 7.41754 29.3088C7.57856 29.5217 7.7806 29.7003 8.01173 29.834C8.24287 29.9676 8.49843 30.0536 8.76333 30.0869C9.02824 30.1202 9.29714 30.1002 9.55417 30.0279L11.3162 29.5319C11.6626 29.434 12.029 29.4313 12.3768 29.5242C12.7246 29.6172 13.0408 29.8022 13.2922 30.0599L14.5682 31.3699C14.7545 31.561 14.9772 31.7129 15.2231 31.8166C15.4691 31.9203 15.7333 31.9737 16.0002 31.9737C16.2671 31.9737 16.5313 31.9203 16.7772 31.8166C17.0231 31.7129 17.2458 31.561 17.4322 31.3699L18.7102 30.0599C18.9613 29.8026 19.2773 29.6177 19.6246 29.5248C19.972 29.4319 20.3381 29.4343 20.6842 29.5319L22.4442 30.0279C22.7012 30.1002 22.9701 30.1202 23.235 30.0869C23.4999 30.0536 23.7555 29.9676 23.9866 29.834C24.2177 29.7003 24.4198 29.5217 24.5808 29.3088C24.7418 29.0958 24.8586 28.8527 24.9242 28.5939L25.3762 26.8219C25.4648 26.4731 25.6459 26.1546 25.9004 25.9001C26.1549 25.6456 26.4733 25.4645 26.8222 25.3759L28.5942 24.9259C28.853 24.8603 29.096 24.7436 29.309 24.5826C29.522 24.4215 29.7006 24.2195 29.8342 23.9884C29.9679 23.7572 30.0539 23.5017 30.0872 23.2368C30.1205 22.9718 30.1004 22.7029 30.0282 22.4459L29.5322 20.6859C29.4342 20.3395 29.4315 19.9731 29.5245 19.6253C29.6174 19.2775 29.8025 18.9613 30.0602 18.7099L31.3702 17.4319C31.5613 17.2456 31.7131 17.0229 31.8168 16.777C31.9205 16.531 31.974 16.2668 31.974 15.9999C31.974 15.733 31.9205 15.4688 31.8168 15.2229C31.7131 14.9769 31.5613 14.7542 31.3702 14.5679L30.0602 13.2919C29.8025 13.0406 29.6174 12.7243 29.5245 12.3765C29.4315 12.0287 29.4342 11.6623 29.5322 11.3159L30.0282 9.55592C30.1004 9.29889 30.1205 9.03 30.0872 8.76509C30.0539 8.50018 29.9679 8.24462 29.8342 8.01349C29.7006 7.78235 29.522 7.58032 29.309 7.41929C29.096 7.25827 28.853 7.14152 28.5942 7.07592L26.8222 6.62392C26.4733 6.53531 26.1549 6.3542 25.9004 6.09971C25.6459 5.84521 25.4648 5.52675 25.3762 5.17792L24.9262 3.40592C24.8604 3.14729 24.7434 2.90445 24.5823 2.6917C24.4212 2.47895 24.2191 2.3006 23.988 2.16715C23.7569 2.0337 23.5014 1.94785 23.2366 1.91467C22.9718 1.88148 22.7031 1.90163 22.4462 1.97392L20.6862 2.46992C20.3393 2.56803 19.9724 2.57057 19.6242 2.47728C19.276 2.38398 18.9595 2.19832 18.7082 1.93992L17.4322 0.629923ZM23.5462 12.5799C23.8326 12.3036 23.9975 11.9247 24.0046 11.5268C24.0118 11.1288 23.8605 10.7444 23.5842 10.4579C23.3078 10.1715 22.929 10.0066 22.531 9.99944C22.1331 9.99232 21.7486 10.1436 21.4622 10.4199L13.1942 18.4039L10.5602 15.7739C10.2782 15.4928 9.89619 15.3352 9.49805 15.3357C9.09991 15.3363 8.7183 15.495 8.43717 15.7769C8.15604 16.0588 7.99842 16.4409 7.99898 16.839C7.99954 17.2372 8.15824 17.6188 8.44017 17.8999L12.1182 21.5679C12.3959 21.8454 12.7714 22.003 13.1641 22.0067C13.5567 22.0105 13.9352 21.8601 14.2182 21.5879L23.5462 12.5799Z" fill="#5041BC"/>
</g>
<defs>
<clipPath id="clip0_2265_984">
<rect width="32" height="32" fill="white"/>
</clipPath>
</defs>
</svg>
